<svg width="719" height="509" viewBox="0 0 719 509" fill="none" xmlns="http://www.w3.org/2000/svg">
<path d="M589.23 320.065C613.021 298.851 643.113 283.62 669.086 264.423C691.726 247.691 712.528 226.428 717.618 201.014C722.505 176.484 710.953 152.354 692.312 133.506C671.55 112.509 642.649 98.8775 612.879 88.2789C580.343 76.6971 545.989 68.8147 514.079 56.0164C482.29 43.2514 453.086 26.7203 421.761 13.3054C398.031 3.14001 368.887 -3.07584 342.491 3.20667C322.173 8.03938 306.42 20.1044 294.343 34.0026C280.548 49.8672 270.834 67.8982 260.998 85.5459C255.364 95.6779 249.85 105.843 242.438 115.209C234.137 125.674 224.1 135.189 212.729 143.455C201.076 151.937 187.989 159.07 173.972 164.586C157.835 170.935 140.487 174.651 123.098 177.834C91.4702 183.616 58.5097 188.283 31.9515 204.714C20.7829 211.629 11.1291 220.428 5.49429 231.077C-0.140494 241.709 -1.2715 253.491 1.57619 264.823C7.69569 289.119 29.3058 308.683 54.8138 320.749C112.454 348.028 188.998 343.346 238.52 383.174C262.553 402.505 275.58 428.535 292.343 452.015C307.228 472.879 326.394 493.626 354.407 503.008C382.984 512.59 415.541 507.591 441.857 495.559C470.313 482.561 491.156 461.097 507.515 438.367C511.635 432.634 515.513 426.801 519.229 420.886C523.066 414.803 526.015 408.437 529.63 402.271C529.974 401.671 528.903 401.138 528.54 401.738C524.965 407.854 520.643 413.703 516.846 419.719C513.029 425.768 509.07 431.767 504.829 437.633C496.488 449.182 487.137 460.264 476.069 470.146C454.722 489.21 425.942 503.541 394.052 505.574C378.723 506.558 363.253 504.408 349.458 498.709C335.987 493.143 324.637 484.727 315.024 475.245C294.767 455.264 282.649 430.968 266.169 408.954C257.969 398.005 248.598 387.54 236.985 378.891C225.311 370.192 211.638 363.526 197.299 358.31C167.833 347.578 136.023 342.746 105.284 335.197C74.6668 327.681 43.5442 316.932 23.0046 295.868C4.40371 276.788 -4.42212 250.191 10.604 227.677C25.1857 205.83 54.8138 194.198 82.7656 187.849C115.463 180.417 149.737 177.601 180.233 164.552C205.963 153.554 228.199 137.039 244.195 117.108C257.848 100.111 266.27 80.4799 277.337 62.3156C287.112 46.301 298.402 30.0698 315.044 18.2047C332.292 5.90632 354.083 1.25689 376.562 3.58992C410.108 7.05614 438.464 23.5707 466.961 37.3022C481.967 44.5346 497.094 51.6337 512.746 57.8995C527.833 63.9487 543.384 68.8647 559.137 73.5808C617.747 91.1952 689.242 111.543 711.296 165.369C716.164 177.234 717.598 189.932 714.75 202.264C711.842 214.829 704.914 226.494 696.008 236.893C676.983 259.157 649.839 274.921 624.311 291.652C611.446 300.085 598.924 308.883 587.876 318.932C587.048 319.699 588.402 320.815 589.23 320.065Z" fill="url(#paint0_linear_1025_14347)"/>
<defs>
<linearGradient id="paint0_linear_1025_14347" x1="187.12" y1="75.4759" x2="499.125" y2="453.607" gradientUnits="userSpaceOnUse">
<stop stop-color="#313C40"/>
<stop offset="0.251" stop-color="#333E40"/>
<stop offset="0.397" stop-color="#3C4441"/>
<stop offset="0.5161" stop-color="#4A4E42"/>
<stop offset="0.6208" stop-color="#5E5D43"/>
<stop offset="0.716" stop-color="#969696"/>
<stop offset="0.8042" stop-color="#969696"/>
<stop offset="0.8873" stop-color="#93A2C9" stop-opacity="0.83"/>
<stop offset="0.964" stop-color="#6678A8"/>
<stop offset="1" stop-color="#6983CA"/>
</linearGradient>
</defs>
</svg>
