<svg width="419" height="106" viewBox="0 0 419 106" fill="none" xmlns="http://www.w3.org/2000/svg">
<path d="M88.7052 25.5849V26.9847H59.4204V26.5181C59.4204 22.3353 55.8861 18.3691 46.8381 18.3691C38.2142 18.3691 33.973 20.8188 33.973 23.6018C33.973 35.5836 90.7046 26.1681 91.4115 55.8142C91.4115 75.695 73.0126 83.7272 48.5548 83.7272C21.2493 83.7272 0.467285 78.028 0.467285 55.231H30.0347C30.0347 63.8298 36.1139 65.3463 45.7273 65.3463C51.3823 65.3463 59.4406 64.9964 59.4406 59.997C59.4406 48.4819 2.00223 57.664 2.00223 26.5014C2.00223 7.88715 22.6631 0.921387 45.7071 0.921387C69.1955 0.938051 88.281 8.4871 88.7052 25.5849Z" fill="url(#paint0_linear_1025_14354)"/>
<path d="M153.354 82.3443L151.516 73.0455C145.72 79.6779 135.541 83.7441 124.917 83.7441C107.246 83.7441 98.8843 75.2619 98.8843 60.7138V20.9356H127.038V57.9141C127.038 63.0301 130.29 66.6297 136.51 66.6297C143.579 66.6297 148.244 62.2136 148.244 56.9809V20.9189H176.398V82.3276H153.354V82.3443Z" fill="url(#paint1_linear_1025_14354)"/>
<path d="M268.513 51.7482C268.513 73.1454 256.779 83.7273 236.966 83.7273C228.484 83.7273 221.415 81.5109 216.023 76.7449V105.241H187.869V20.9189H210.792L213.195 29.6344C218.709 22.7686 226.909 19.519 236.966 19.519C256.759 19.5357 268.513 30.1177 268.513 51.7482ZM215.74 49.6651V53.498C215.74 60.7137 219.416 66.6462 228.181 66.6462C236.946 66.6462 240.339 61.8802 240.339 54.6645V48.4986C240.339 41.2829 236.946 36.6335 228.181 36.6335C219.416 36.6335 215.74 42.4494 215.74 49.6651Z" fill="url(#paint2_linear_1025_14354)"/>
<path d="M357.074 51.6314V55.5809H301.05C301.05 64.0631 305.291 68.9625 316.035 68.9625C326.073 68.9625 329.749 65.013 329.749 60.0137H357.054C357.054 74.6617 343.482 83.7439 316.601 83.7439C289.72 83.7439 272.896 73.7452 272.896 51.648C272.896 30.1342 289.437 19.5523 314.904 19.5523C341.786 19.5356 357.074 29.5343 357.074 51.6314ZM301.191 44.6656H328.638C328.638 38.2665 323.973 34.317 316.056 34.317C306.563 34.3003 302.181 38.2665 301.191 44.6656Z" fill="url(#paint3_linear_1025_14354)"/>
<path d="M418.592 20.8188V40.2496H409.544C397.386 40.2496 393.003 45.7155 393.003 55.0143V82.3441H364.85V20.9354H387.914L389.752 30.2342C393.286 22.9018 401.344 19.4189 410.271 19.4189C415.482 19.4189 418.592 20.8188 418.592 20.8188Z" fill="url(#paint4_linear_1025_14354)"/>
<defs>
<linearGradient id="paint0_linear_1025_14354" x1="45.9188" y1="6.19587" x2="45.9188" y2="108.417" gradientUnits="userSpaceOnUse">
<stop offset="0.0249" stop-color="#FFC936"/>
<stop offset="0.1178" stop-color="#EBBB37"/>
<stop offset="0.3088" stop-color="#B6973A"/>
<stop offset="0.5788" stop-color="#625E3E"/>
<stop offset="0.7285" stop-color="#313C40"/>
</linearGradient>
<linearGradient id="paint1_linear_1025_14354" x1="137.657" y1="6.19586" x2="137.657" y2="108.417" gradientUnits="userSpaceOnUse">
<stop offset="0.0249" stop-color="#FFC936"/>
<stop offset="0.1178" stop-color="#EBBB37"/>
<stop offset="0.3088" stop-color="#B6973A"/>
<stop offset="0.5788" stop-color="#625E3E"/>
<stop offset="0.7285" stop-color="#313C40"/>
</linearGradient>
<linearGradient id="paint2_linear_1025_14354" x1="228.194" y1="6.19578" x2="228.194" y2="108.417" gradientUnits="userSpaceOnUse">
<stop offset="0.0249" stop-color="#FFC936"/>
<stop offset="0.1178" stop-color="#EBBB37"/>
<stop offset="0.3088" stop-color="#B6973A"/>
<stop offset="0.5788" stop-color="#625E3E"/>
<stop offset="0.7285" stop-color="#313C40"/>
</linearGradient>
<linearGradient id="paint3_linear_1025_14354" x1="314.983" y1="6.19568" x2="314.983" y2="108.417" gradientUnits="userSpaceOnUse">
<stop offset="0.0249" stop-color="#FFC936"/>
<stop offset="0.1178" stop-color="#EBBB37"/>
<stop offset="0.3088" stop-color="#B6973A"/>
<stop offset="0.5788" stop-color="#625E3E"/>
<stop offset="0.7285" stop-color="#313C40"/>
</linearGradient>
<linearGradient id="paint4_linear_1025_14354" x1="391.725" y1="6.19583" x2="391.725" y2="108.417" gradientUnits="userSpaceOnUse">
<stop offset="0.0249" stop-color="#FFC936"/>
<stop offset="0.1178" stop-color="#EBBB37"/>
<stop offset="0.3088" stop-color="#B6973A"/>
<stop offset="0.5788" stop-color="#625E3E"/>
<stop offset="0.7285" stop-color="#313C40"/>
</linearGradient>
</defs>
</svg>
