<svg width="791" height="559" viewBox="0 0 791 559" fill="none" xmlns="http://www.w3.org/2000/svg">
<path d="M468.547 16.4915C441.382 4.02645 407.735 -4.17246 376.875 3.12659C352.922 8.79252 334.847 23.5572 321.194 40.1884C305.825 58.9026 294.999 79.8833 283.528 100.331C276.5 112.846 268.845 124.877 258.585 135.843C247.558 147.641 234.43 158.106 219.788 166.805C204.641 175.787 187.959 182.803 170.267 187.653C150.091 193.185 129.127 196.251 108.425 200.118C74.3946 206.5 38.3037 216.415 16.0271 240.046C6.17132 250.494 0.314366 263.159 0.0518139 276.441C-0.230935 290.073 5.06054 303.504 13.4016 315.169C32.3256 341.682 65.2254 356.847 99.5592 366.562C136.317 376.961 175.114 381.91 211.104 394.242C229.078 400.408 246.286 408.49 260.544 419.539C274.682 430.504 285.608 443.852 295.322 457.617C313.641 483.614 328.384 511.96 354.781 533.341C366.959 543.206 381.52 551.188 397.96 555.255C414.481 559.321 432.133 559.321 448.916 556.371C527.782 542.49 562.884 476.915 594.673 423.072C612.446 392.976 632.157 363.68 662.108 340.599C691.03 318.319 725.545 301.321 752.507 277.257C776.46 255.894 794.475 228.531 790.254 198.584C786.235 170.121 764.766 144.941 738.43 127.127C708.096 106.613 670.571 94.6146 634.136 83.5828C614.586 77.6669 594.794 72.1509 575.809 65.0518C557.067 58.0361 539.052 49.8205 521.259 41.3216C512.756 37.2555 504.314 33.1227 495.832 29.0232C486.824 24.6738 477.473 20.9076 468.365 16.7248C467.658 16.3915 467.012 17.2914 467.719 17.6247C476.807 21.7908 485.451 26.6402 494.418 30.9896C502.901 35.0891 511.343 39.2219 519.845 43.288C537.234 51.6036 554.846 59.6359 573.123 66.535C609.376 80.2332 648.112 88.8154 684.264 102.747C717.971 115.729 749.68 133.16 769.917 159.523C779.207 171.621 785.831 185.286 787.649 199.584C789.547 214.499 785.912 229.414 778.197 242.929C762.04 271.242 731.927 291.439 702.622 310.22C687.071 320.185 671.358 330.067 657.16 341.349C643.427 352.248 631.612 364.563 621.352 377.794C600.429 404.774 585.786 434.57 567.832 462.883C550.301 490.513 528.853 518.176 497.306 536.274C468.163 552.988 429.77 561.954 395.214 552.155C361.203 542.506 338.724 516.96 321.598 492.23C303.421 465.966 288.314 437.153 260.585 416.523C233.198 396.159 197.188 386.527 162.249 378.828C125.33 370.695 86.775 364.03 54.2184 346.665C25.4992 331.35 1.62712 304.854 2.75812 275.541C3.88911 245.845 32.9719 224.964 63.7511 213.766C100.69 200.318 142.133 199.134 179.698 187.203C211.164 177.204 239.055 159.973 259.797 138.076C278.216 118.645 288.597 95.4979 301.543 73.5008C312.712 54.5199 325.375 35.0558 344.541 20.691C364.333 5.84291 389.74 0.243625 416.076 3.27656C434.233 5.35962 451.501 10.6923 467.557 17.908C468.648 18.3579 469.617 16.9914 468.547 16.4915Z" fill="url(#paint0_linear_1025_14342)"/>
<defs>
<linearGradient id="paint0_linear_1025_14342" x1="44.8635" y1="390.782" x2="742.34" y2="83.1186" gradientUnits="userSpaceOnUse">
<stop offset="0.0277" stop-color="#087856"/>
<stop offset="0.2427" stop-color="#6C6744"/>
<stop offset="0.3099" stop-color="#565742"/>
<stop offset="0.3884" stop-color="#454B41"/>
<stop offset="0.4856" stop-color="#3A4241"/>
<stop offset="0.6218" stop-color="#333D40"/>
<stop offset="1" stop-color="#313C40"/>
</linearGradient>
</defs>
</svg>
