<svg width="1084" height="802" viewBox="0 0 1084 802" fill="none" xmlns="http://www.w3.org/2000/svg">
<g opacity="0.7">
<g opacity="0.7">
<path opacity="0.7" d="M331.063 565.071L777.181 182.604" stroke="#969696" stroke-width="2" stroke-miterlimit="10" stroke-linecap="round" stroke-linejoin="round" stroke-dasharray="0.3 0.3"/>
<path opacity="0.7" d="M334.638 596.267L808.788 189.103" stroke="#969696" stroke-width="2" stroke-miterlimit="10" stroke-linecap="round" stroke-linejoin="round" stroke-dasharray="0.3 0.3"/>
<path opacity="0.7" d="M348.978 617.98L836.538 199.001" stroke="#969696" stroke-width="2" stroke-miterlimit="10" stroke-linecap="round" stroke-linejoin="round" stroke-dasharray="0.3 0.3"/>
<path opacity="0.7" d="M369.113 634.578L867.58 205.984" stroke="#969696" stroke-width="2" stroke-miterlimit="10" stroke-linecap="round" stroke-linejoin="round" stroke-dasharray="0.3 0.3"/>
<path opacity="0.7" d="M384.827 655.076L898.905 212.733" stroke="#969696" stroke-width="2" stroke-miterlimit="10" stroke-linecap="round" stroke-linejoin="round" stroke-dasharray="0.3 0.3"/>
<path opacity="0.7" d="M403.286 673.173L932.148 217.799" stroke="#969696" stroke-width="2" stroke-miterlimit="10" stroke-linecap="round" stroke-linejoin="round" stroke-dasharray="0.3 0.3"/>
<path opacity="0.7" d="M421.583 691.387L957.594 229.731" stroke="#969696" stroke-width="2" stroke-miterlimit="10" stroke-linecap="round" stroke-linejoin="round" stroke-dasharray="0.3 0.3"/>
<path opacity="0.7" d="M439.922 709.569L988.738 236.647" stroke="#969696" stroke-width="2" stroke-miterlimit="10" stroke-linecap="round" stroke-linejoin="round" stroke-dasharray="0.3 0.3"/>
<path opacity="0.7" d="M458.846 727.25L1014.06 248.679" stroke="#969696" stroke-width="2" stroke-miterlimit="10" stroke-linecap="round" stroke-linejoin="round" stroke-dasharray="0.3 0.3"/>
<path opacity="0.7" d="M475.527 746.88L1035.17 264.427" stroke="#969696" stroke-width="2" stroke-miterlimit="10" stroke-linecap="round" stroke-linejoin="round" stroke-dasharray="0.3 0.3"/>
<path opacity="0.7" d="M494.473 764.545L1058.96 277.825" stroke="#969696" stroke-width="2" stroke-miterlimit="10" stroke-linecap="round" stroke-linejoin="round" stroke-dasharray="0.3 0.3"/>
<path opacity="0.7" d="M514.588 781.16L1082.39 291.523" stroke="#969696" stroke-width="2" stroke-miterlimit="10" stroke-linecap="round" stroke-linejoin="round" stroke-dasharray="0.3 0.3"/>
<path opacity="0.7" d="M531.533 800.59L1079.28 328.602" stroke="#969696" stroke-width="2" stroke-miterlimit="10" stroke-linecap="round" stroke-linejoin="round" stroke-dasharray="0.3 0.3"/>
</g>
</g>
<path d="M715.744 125.728C721.332 125.728 725.862 121.99 725.862 117.379C725.862 112.768 721.332 109.03 715.744 109.03C710.156 109.03 705.625 112.768 705.625 117.379C705.625 121.99 710.156 125.728 715.744 125.728Z" fill="url(#paint0_linear_1025_14286)"/>
<path d="M715.743 131.677C725.313 131.677 733.071 125.275 733.071 117.379C733.071 109.482 725.313 103.081 715.743 103.081C706.173 103.081 698.415 109.482 698.415 117.379C698.415 125.275 706.173 131.677 715.743 131.677Z" stroke="url(#paint1_linear_1025_14286)" stroke-miterlimit="10"/>
<path d="M495.886 528.825C495.886 534.408 490.392 538.941 483.626 538.941C476.861 538.941 471.367 534.408 471.367 528.825C471.367 523.243 476.861 518.71 483.626 518.71C490.392 518.71 495.886 523.226 495.886 528.825Z" stroke="url(#paint2_linear_1025_14286)" stroke-miterlimit="10"/>
<path d="M764.619 162.457C777.959 162.457 788.774 153.533 788.774 142.526C788.774 131.519 777.959 122.595 764.619 122.595C751.278 122.595 740.464 131.519 740.464 142.526C740.464 153.533 751.278 162.457 764.619 162.457Z" fill="url(#paint3_linear_1025_14286)"/>
<path d="M82.8703 358.531C82.8703 363.63 77.8616 367.763 71.6815 367.763C65.5014 367.763 60.4927 363.63 60.4927 358.531C60.4927 353.432 65.5014 349.299 71.6815 349.299C77.8616 349.299 82.8703 353.432 82.8703 358.531Z" fill="url(#paint4_linear_1025_14286)"/>
<path d="M643.177 94.3989L661.192 76.6846" stroke="url(#paint5_linear_1025_14286)" stroke-miterlimit="10"/>
<path d="M648.711 98.2149L677.006 70.4019" stroke="url(#paint6_linear_1025_14286)" stroke-miterlimit="10"/>
<path d="M643.177 112.93L672.24 84.3335" stroke="url(#paint7_linear_1025_14286)" stroke-miterlimit="10"/>
<path d="M93.5947 300.638L111.59 282.924" stroke="url(#paint8_linear_1025_14286)" stroke-miterlimit="10"/>
<path d="M99.1084 304.471L127.403 276.641" stroke="url(#paint9_linear_1025_14286)" stroke-miterlimit="10"/>
<path d="M93.5947 319.169L122.637 290.573" stroke="url(#paint10_linear_1025_14286)" stroke-miterlimit="10"/>
<path d="M694.153 399.775L717.137 377.145" stroke="#6983CA" stroke-miterlimit="10"/>
<path d="M701.202 404.658L737.333 369.113" stroke="url(#paint11_linear_1025_14286)" stroke-miterlimit="10"/>
<path d="M694.153 423.439L731.274 386.927" stroke="url(#paint12_linear_1025_14286)" stroke-miterlimit="10"/>
<g opacity="0.5">
<path opacity="0.5" d="M656.871 4.72705L629.889 29.5405" stroke="url(#paint13_linear_1025_14286)" stroke-miterlimit="10"/>
<path opacity="0.5" d="M664.606 10.4595L622.234 49.4377" stroke="url(#paint14_linear_1025_14286)" stroke-miterlimit="10"/>
<path opacity="0.5" d="M688.923 0.960938L645.379 41.0057" stroke="url(#paint15_linear_1025_14286)" stroke-miterlimit="10"/>
</g>
<path d="M82.8701 389.01L117.103 355.331" stroke="url(#paint16_linear_1025_14286)" stroke-miterlimit="10"/>
<path d="M93.3721 396.276L147.155 343.383" stroke="url(#paint17_linear_1025_14286)" stroke-miterlimit="10"/>
<path d="M82.8701 424.239L138.107 369.879" stroke="url(#paint18_linear_1025_14286)" stroke-miterlimit="10"/>
<path d="M147.156 315.97C150.87 315.97 153.881 313.485 153.881 310.42C153.881 307.356 150.87 304.871 147.156 304.871C143.441 304.871 140.43 307.356 140.43 310.42C140.43 313.485 143.441 315.97 147.156 315.97Z" fill="white"/>
<path d="M151.578 426.938C151.578 430.005 148.569 432.488 144.853 432.488C141.137 432.488 138.127 430.005 138.127 426.938C138.127 423.872 141.137 421.389 144.853 421.389C148.569 421.389 151.578 423.872 151.578 426.938Z" fill="white"/>
<path d="M116.356 157.807C116.356 159.224 114.963 160.373 113.246 160.373C111.529 160.373 110.136 159.224 110.136 157.807C110.136 156.391 111.529 155.241 113.246 155.241C114.963 155.257 116.356 156.391 116.356 157.807Z" fill="white"/>
<path d="M712.714 231.981C714.432 231.981 715.824 230.832 715.824 229.414C715.824 227.997 714.432 226.848 712.714 226.848C710.996 226.848 709.604 227.997 709.604 229.414C709.604 230.832 710.996 231.981 712.714 231.981Z" fill="white"/>
<path d="M743.553 460.401C743.553 461.817 742.16 462.967 740.443 462.967C738.727 462.967 737.333 461.817 737.333 460.401C737.333 458.984 738.727 457.834 740.443 457.834C742.16 457.851 743.553 458.984 743.553 460.401Z" fill="white"/>
<path d="M82.8704 122.928C86.5848 122.928 89.5958 120.444 89.5958 117.379C89.5958 114.314 86.5848 111.83 82.8704 111.83C79.1561 111.83 76.145 114.314 76.145 117.379C76.145 120.444 79.1561 122.928 82.8704 122.928Z" fill="white"/>
<path d="M265.99 486.381C265.99 489.447 262.981 491.93 259.265 491.93C255.549 491.93 252.54 489.447 252.54 486.381C252.54 483.315 255.549 480.832 259.265 480.832C262.981 480.832 265.99 483.315 265.99 486.381Z" fill="white"/>
<path d="M700.878 483.031C700.878 486.098 697.869 488.581 694.153 488.581C690.437 488.581 687.428 486.098 687.428 483.031C687.428 479.965 690.437 477.482 694.153 477.482C697.869 477.482 700.878 479.965 700.878 483.031Z" fill="white"/>
<path d="M816.018 319.169C816.018 322.236 813.009 324.719 809.293 324.719C805.577 324.719 802.567 322.236 802.567 319.169C802.567 316.103 805.577 313.62 809.293 313.62C813.009 313.604 816.018 316.103 816.018 319.169Z" fill="white"/>
<path d="M7.63896 243.08C11.3533 243.08 14.3643 240.595 14.3643 237.53C14.3643 234.465 11.3533 231.981 7.63896 231.981C3.92464 231.981 0.913574 234.465 0.913574 237.53C0.913574 240.595 3.92464 243.08 7.63896 243.08Z" fill="white"/>
<path d="M197.848 492.047L216.428 498.279L224.79 474.449L197.848 492.047Z" fill="#6983CA"/>
<path d="M147.156 472.149L162.263 503.979L220.246 462.084L147.156 472.149Z" fill="url(#paint19_linear_1025_14286)"/>
<path d="M801.659 210.1L793.56 243.629L727.558 210.783L801.659 210.1Z" fill="#6983CA"/>
<path d="M135.158 82.6001L110.579 96.8149L140.147 109.43L135.158 82.6001Z" fill="#6983CA"/>
<path d="M737.494 266.393L709.563 257.344L713.158 284.641L737.494 266.393Z" fill="url(#paint20_linear_1025_14286)"/>
<defs>
<linearGradient id="paint0_linear_1025_14286" x1="705.634" y1="117.385" x2="725.851" y2="117.385" gradientUnits="userSpaceOnUse">
<stop offset="1" stop-color="#6983CA"/>
</linearGradient>
<linearGradient id="paint1_linear_1025_14286" x1="697.398" y1="117.385" x2="734.085" y2="117.385" gradientUnits="userSpaceOnUse">
<stop offset="0.0277" stop-color="#6983CA"/>
</linearGradient>
<linearGradient id="paint2_linear_1025_14286" x1="470.352" y1="528.819" x2="496.885" y2="528.819" gradientUnits="userSpaceOnUse">
<stop offset="0.0277" stop-color="#9177FF"/>
<stop offset="0.7154" stop-color="#02BA86"/>
<stop offset="1" stop-color="#66BFE6"/>
</linearGradient>
<linearGradient id="paint3_linear_1025_14286" x1="740.455" y1="142.533" x2="788.777" y2="142.533" gradientUnits="userSpaceOnUse">
<stop offset="1" stop-color="#6983CA"/>
</linearGradient>
<linearGradient id="paint4_linear_1025_14286" x1="60.508" y1="358.526" x2="82.8693" y2="358.526" gradientUnits="userSpaceOnUse">
<stop offset="1" stop-color="#9177FF"/>
</linearGradient>
<linearGradient id="paint5_linear_1025_14286" x1="641.611" y1="86.3042" x2="662.692" y2="84.0653" gradientUnits="userSpaceOnUse">
<stop offset="0.155" stop-color="#6983CA"/>
<stop offset="0.375" stop-color="#3BA98A"/>
</linearGradient>
<linearGradient id="paint6_linear_1025_14286" x1="646.645" y1="85.4808" x2="678.956" y2="82.0492" gradientUnits="userSpaceOnUse">
<stop offset="1" stop-color="#6983CA"/>
</linearGradient>
<linearGradient id="paint7_linear_1025_14286" x1="641.08" y1="99.833" x2="674.237" y2="96.3116" gradientUnits="userSpaceOnUse">
<stop offset="0.0277" stop-color="#66BFE6"/>
<stop offset="0.7154" stop-color="#40A4FF"/>
<stop offset="1" stop-color="#40A4FF"/>
</linearGradient>
<linearGradient id="paint8_linear_1025_14286" x1="92.8119" y1="291.781" x2="112.364" y2="291.781" gradientUnits="userSpaceOnUse">
<stop offset="0.0277" stop-color="#6983CA"/>
<stop offset="0.1674" stop-color="#6983CA"/>
<stop offset="0.4544" stop-color="#02A272"/>
<stop offset="0.8604" stop-color="#625F4E"/>
<stop offset="1" stop-color="#44494E"/>
</linearGradient>
<linearGradient id="paint9_linear_1025_14286" x1="98.3405" y1="290.551" x2="128.174" y2="290.551" gradientUnits="userSpaceOnUse">
<stop offset="0.0277" stop-color="#6983CA"/>
<stop offset="0.1674" stop-color="#8DA9F5"/>
<stop offset="0.4544" stop-color="#9177FF"/>
<stop offset="0.8604" stop-color="#625F4E"/>
<stop offset="1" stop-color="#44494E"/>
</linearGradient>
<linearGradient id="paint10_linear_1025_14286" x1="92.8119" y1="304.872" x2="123.421" y2="304.872" gradientUnits="userSpaceOnUse">
<stop offset="0.0277" stop-color="#85A4FB"/>
<stop offset="0.1674" stop-color="#82A0F1"/>
<stop offset="0.4544" stop-color="#6983CA"/>
<stop offset="0.8604" stop-color="#625F4E"/>
<stop offset="1" stop-color="#44494E"/>
</linearGradient>
<linearGradient id="paint11_linear_1025_14286" x1="698.76" y1="388.372" x2="739.64" y2="384.031" gradientUnits="userSpaceOnUse">
<stop offset="0.0277" stop-color="#6983CA"/>
<stop offset="0.7154" stop-color="#7D9AE8"/>
<stop offset="1" stop-color="#89A9FF"/>
</linearGradient>
<linearGradient id="paint12_linear_1025_14286" x1="691.65" y1="406.706" x2="733.612" y2="402.25" gradientUnits="userSpaceOnUse">
<stop offset="1" stop-color="#6983CA"/>
</linearGradient>
<linearGradient id="paint13_linear_1025_14286" x1="642.567" y1="4.78276" x2="643.673" y2="29.5173" gradientUnits="userSpaceOnUse">
<stop offset="0.0277" stop-color="#6983CA"/>
<stop offset="0.7154" stop-color="#3BA98A"/>
<stop offset="1" stop-color="#6983CA"/>
</linearGradient>
<linearGradient id="paint14_linear_1025_14286" x1="642.167" y1="10.8806" x2="643.874" y2="49.0679" gradientUnits="userSpaceOnUse">
<stop offset="0.0277" stop-color="#6983CA"/>
<stop offset="0.7154" stop-color="#83A0F1"/>
<stop offset="1" stop-color="#86A6FF"/>
</linearGradient>
<linearGradient id="paint15_linear_1025_14286" x1="665.867" y1="1.40583" x2="667.619" y2="40.607" gradientUnits="userSpaceOnUse">
<stop offset="0.0277" stop-color="#6983CA"/>
</linearGradient>
<linearGradient id="paint16_linear_1025_14286" x1="80.5136" y1="373.579" x2="119.313" y2="369.458" gradientUnits="userSpaceOnUse">
<stop offset="0.0277" stop-color="#087856"/>
<stop offset="0.8604" stop-color="#625F4E"/>
<stop offset="1" stop-color="#44494E"/>
</linearGradient>
<linearGradient id="paint17_linear_1025_14286" x1="90.0847" y1="372.014" x2="150.231" y2="365.626" gradientUnits="userSpaceOnUse">
<stop offset="0.0277" stop-color="#6983CA"/>
<stop offset="0.8604" stop-color="#625F4E"/>
<stop offset="1" stop-color="#44494E"/>
</linearGradient>
<linearGradient id="paint18_linear_1025_14286" x1="79.5042" y1="399.299" x2="141.26" y2="392.74" gradientUnits="userSpaceOnUse">
<stop offset="0.1674" stop-color="#6983CA"/>
<stop offset="0.8604" stop-color="#625F4E"/>
<stop offset="1" stop-color="#44494E"/>
</linearGradient>
<linearGradient id="paint19_linear_1025_14286" x1="147.153" y1="483.033" x2="220.246" y2="483.033" gradientUnits="userSpaceOnUse">
<stop offset="1" stop-color="#6983CA"/>
</linearGradient>
<linearGradient id="paint20_linear_1025_14286" x1="706.157" y1="260.258" x2="722.431" y2="279.279" gradientUnits="userSpaceOnUse">
<stop offset="1" stop-color="#6983CA"/>
</linearGradient>
</defs>
</svg>
