<svg width="2133" height="1734" viewBox="0 0 2133 1734" fill="none" xmlns="http://www.w3.org/2000/svg">
<path d="M900.026 1471.83C933.815 1449.61 952.456 1416.23 949.346 1383.57C944.943 1337.49 901.622 1304.78 845.516 1285.37C824.977 1278.25 803.407 1272.47 784.18 1263.67C737.769 1242.42 739.93 1209.18 718.724 1176.76C661.629 1089.44 502.32 1153.12 404.186 1132.65C340.325 1119.34 295.61 1076.08 293.368 1029.13C293.207 1025.77 293.187 1022.22 290.824 1019.29C289.188 1017.27 286.582 1015.75 283.937 1014.4C242.635 993.239 180.551 1001.07 143.713 1023.78C102.977 1048.91 84.3361 1087.54 73.3089 1125.1C64.5033 1155.08 59.4542 1186.26 68.1992 1216.26C91.9097 1297.68 207.473 1348.78 255.662 1424.53C266.063 1440.9 273.253 1458.31 285.593 1473.98C316.978 1513.8 377.628 1537.3 438.136 1552.47C512.741 1571.16 596.516 1580.1 670.111 1559.48C717.249 1546.28 756.996 1521.85 804.457 1509.25C837.519 1500.44 874.114 1488.86 900.026 1471.83Z" fill="url(#paint0_linear_1025_14185)"/>
<path d="M1107.68 412.747C1096.35 443.843 1109.34 489.354 1138.73 513.601C1168.09 537.848 1214.62 550.729 1259.04 546.93C1291.07 544.18 1320.59 533.532 1351.48 526.849C1382.36 520.167 1418.08 517.934 1444.9 530.815C1458.74 537.448 1469.91 547.93 1486.2 550.329C1500.85 552.496 1516.16 547.197 1526.11 539.181C1536.05 531.165 1541.48 520.8 1545.64 510.468C1557.36 481.455 1560.69 450.709 1555.4 420.746C1551.68 399.716 1543.14 378.269 1523.39 362.521C1493.42 338.607 1445.19 332.925 1400.96 327.942C1361.21 323.459 1321.34 318.393 1281.11 318.676C1240.88 318.943 1199.72 324.926 1166.17 340.874C1132.61 356.805 1107.79 383.835 1107.68 412.747Z" fill="url(#paint1_linear_1025_14185)"/>
<g opacity="0.7">
<g opacity="0.7">
<path opacity="0.7" d="M967.179 384.185L1479.22 1.71826" stroke="#969696" stroke-width="2" stroke-miterlimit="10" stroke-linecap="round" stroke-linejoin="round" stroke-dasharray="0.3 0.3"/>
<path opacity="0.7" d="M971.279 415.381L1515.51 8.21729" stroke="#969696" stroke-width="2" stroke-miterlimit="10" stroke-linecap="round" stroke-linejoin="round" stroke-dasharray="0.3 0.3"/>
<path opacity="0.7" d="M987.719 437.094L1547.36 18.1157" stroke="#969696" stroke-width="2" stroke-miterlimit="10" stroke-linecap="round" stroke-linejoin="round" stroke-dasharray="0.3 0.3"/>
<path opacity="0.7" d="M1010.84 453.693L1583.01 25.0986" stroke="#969696" stroke-width="2" stroke-miterlimit="10" stroke-linecap="round" stroke-linejoin="round" stroke-dasharray="0.3 0.3"/>
<path opacity="0.7" d="M1028.88 474.207L1618.96 31.8643" stroke="#969696" stroke-width="2" stroke-miterlimit="10" stroke-linecap="round" stroke-linejoin="round" stroke-dasharray="0.3 0.3"/>
<path opacity="0.7" d="M1050.06 492.287L1657.13 36.9136" stroke="#969696" stroke-width="2" stroke-miterlimit="10" stroke-linecap="round" stroke-linejoin="round" stroke-dasharray="0.3 0.3"/>
<path opacity="0.7" d="M1071.07 510.502L1686.33 48.8452" stroke="#969696" stroke-width="2" stroke-miterlimit="10" stroke-linecap="round" stroke-linejoin="round" stroke-dasharray="0.3 0.3"/>
<path opacity="0.7" d="M1092.13 528.683L1722.08 55.7612" stroke="#969696" stroke-width="2" stroke-miterlimit="10" stroke-linecap="round" stroke-linejoin="round" stroke-dasharray="0.3 0.3"/>
<path opacity="0.7" d="M1113.85 546.364L1751.14 67.793" stroke="#969696" stroke-width="2" stroke-miterlimit="10" stroke-linecap="round" stroke-linejoin="round" stroke-dasharray="0.3 0.3"/>
<path opacity="0.7" d="M1132.99 565.995L1775.36 83.5576" stroke="#969696" stroke-width="2" stroke-miterlimit="10" stroke-linecap="round" stroke-linejoin="round" stroke-dasharray="0.3 0.3"/>
<path opacity="0.7" d="M1154.74 583.659L1802.68 96.939" stroke="#969696" stroke-width="2" stroke-miterlimit="10" stroke-linecap="round" stroke-linejoin="round" stroke-dasharray="0.3 0.3"/>
<path opacity="0.7" d="M1177.83 600.29L1829.56 110.637" stroke="#969696" stroke-width="2" stroke-miterlimit="10" stroke-linecap="round" stroke-linejoin="round" stroke-dasharray="0.3 0.3"/>
<path opacity="0.7" d="M1197.28 619.704L1825.99 147.716" stroke="#969696" stroke-width="2" stroke-miterlimit="10" stroke-linecap="round" stroke-linejoin="round" stroke-dasharray="0.3 0.3"/>
</g>
<g opacity="0.7">
<path opacity="0.7" d="M1268.97 601.14L1781.03 218.673" stroke="#969696" stroke-width="2" stroke-miterlimit="10" stroke-linecap="round" stroke-linejoin="round" stroke-dasharray="0.3 0.3"/>
<path opacity="0.7" d="M1273.07 632.319L1817.3 225.172" stroke="#969696" stroke-width="2" stroke-miterlimit="10" stroke-linecap="round" stroke-linejoin="round" stroke-dasharray="0.3 0.3"/>
<path opacity="0.7" d="M1289.51 654.05L1849.17 235.054" stroke="#969696" stroke-width="2" stroke-miterlimit="10" stroke-linecap="round" stroke-linejoin="round" stroke-dasharray="0.3 0.3"/>
<path opacity="0.7" d="M1312.64 670.647L1884.8 242.053" stroke="#969696" stroke-width="2" stroke-miterlimit="10" stroke-linecap="round" stroke-linejoin="round" stroke-dasharray="0.3 0.3"/>
<path opacity="0.7" d="M1330.67 691.145L1920.75 248.803" stroke="#969696" stroke-width="2" stroke-miterlimit="10" stroke-linecap="round" stroke-linejoin="round" stroke-dasharray="0.3 0.3"/>
<path opacity="0.7" d="M1351.86 709.243L1958.92 253.869" stroke="#969696" stroke-width="2" stroke-miterlimit="10" stroke-linecap="round" stroke-linejoin="round" stroke-dasharray="0.3 0.3"/>
<path opacity="0.7" d="M1372.86 727.44L1988.12 265.8" stroke="#969696" stroke-width="2" stroke-miterlimit="10" stroke-linecap="round" stroke-linejoin="round" stroke-dasharray="0.3 0.3"/>
<path opacity="0.7" d="M1393.93 745.638L2023.87 272.716" stroke="#969696" stroke-width="2" stroke-miterlimit="10" stroke-linecap="round" stroke-linejoin="round" stroke-dasharray="0.3 0.3"/>
<path opacity="0.7" d="M1415.64 763.319L2052.94 284.748" stroke="#969696" stroke-width="2" stroke-miterlimit="10" stroke-linecap="round" stroke-linejoin="round" stroke-dasharray="0.3 0.3"/>
<path opacity="0.7" d="M1434.79 782.95L2077.15 300.496" stroke="#969696" stroke-width="2" stroke-miterlimit="10" stroke-linecap="round" stroke-linejoin="round" stroke-dasharray="0.3 0.3"/>
<path opacity="0.7" d="M1456.54 800.614L2104.48 313.878" stroke="#969696" stroke-width="2" stroke-miterlimit="10" stroke-linecap="round" stroke-linejoin="round" stroke-dasharray="0.3 0.3"/>
<path opacity="0.7" d="M1479.62 817.229L2131.38 327.593" stroke="#969696" stroke-width="2" stroke-miterlimit="10" stroke-linecap="round" stroke-linejoin="round" stroke-dasharray="0.3 0.3"/>
<path opacity="0.7" d="M1499.07 836.659L2127.78 364.671" stroke="#969696" stroke-width="2" stroke-miterlimit="10" stroke-linecap="round" stroke-linejoin="round" stroke-dasharray="0.3 0.3"/>
</g>
</g>
<g opacity="0.7">
<g opacity="0.7">
<path opacity="0.7" d="M1.4502 1279.57L447.547 897.102" stroke="#969696" stroke-width="2" stroke-miterlimit="10" stroke-linecap="round" stroke-linejoin="round" stroke-dasharray="0.3 0.3"/>
<path opacity="0.7" d="M5.0249 1310.76L479.155 903.601" stroke="#969696" stroke-width="2" stroke-miterlimit="10" stroke-linecap="round" stroke-linejoin="round" stroke-dasharray="0.3 0.3"/>
<path opacity="0.7" d="M19.3438 1332.48L506.924 913.499" stroke="#969696" stroke-width="2" stroke-miterlimit="10" stroke-linecap="round" stroke-linejoin="round" stroke-dasharray="0.3 0.3"/>
<path opacity="0.7" d="M39.5 1349.08L537.966 920.499" stroke="#969696" stroke-width="2" stroke-miterlimit="10" stroke-linecap="round" stroke-linejoin="round" stroke-dasharray="0.3 0.3"/>
<path opacity="0.7" d="M55.1924 1369.59L569.291 927.248" stroke="#969696" stroke-width="2" stroke-miterlimit="10" stroke-linecap="round" stroke-linejoin="round" stroke-dasharray="0.3 0.3"/>
<path opacity="0.7" d="M73.6523 1387.67L602.534 932.313" stroke="#969696" stroke-width="2" stroke-miterlimit="10" stroke-linecap="round" stroke-linejoin="round" stroke-dasharray="0.3 0.3"/>
<path opacity="0.7" d="M91.9697 1405.88L627.981 944.229" stroke="#969696" stroke-width="2" stroke-miterlimit="10" stroke-linecap="round" stroke-linejoin="round" stroke-dasharray="0.3 0.3"/>
<path opacity="0.7" d="M110.308 1424.07L659.124 951.145" stroke="#969696" stroke-width="2" stroke-miterlimit="10" stroke-linecap="round" stroke-linejoin="round" stroke-dasharray="0.3 0.3"/>
<path opacity="0.7" d="M129.232 1441.75L684.45 963.176" stroke="#969696" stroke-width="2" stroke-miterlimit="10" stroke-linecap="round" stroke-linejoin="round" stroke-dasharray="0.3 0.3"/>
<path opacity="0.7" d="M145.914 1461.39L705.555 978.941" stroke="#969696" stroke-width="2" stroke-miterlimit="10" stroke-linecap="round" stroke-linejoin="round" stroke-dasharray="0.3 0.3"/>
<path opacity="0.7" d="M164.859 1479.04L729.347 992.322" stroke="#969696" stroke-width="2" stroke-miterlimit="10" stroke-linecap="round" stroke-linejoin="round" stroke-dasharray="0.3 0.3"/>
<path opacity="0.7" d="M184.975 1495.67L752.775 1006.02" stroke="#969696" stroke-width="2" stroke-miterlimit="10" stroke-linecap="round" stroke-linejoin="round" stroke-dasharray="0.3 0.3"/>
<path opacity="0.7" d="M201.899 1515.09L749.664 1043.1" stroke="#969696" stroke-width="2" stroke-miterlimit="10" stroke-linecap="round" stroke-linejoin="round" stroke-dasharray="0.3 0.3"/>
</g>
<g opacity="0.7">
<path opacity="0.7" d="M264.386 1496.52L710.483 1114.06" stroke="#969696" stroke-width="2" stroke-miterlimit="10" stroke-linecap="round" stroke-linejoin="round" stroke-dasharray="0.3 0.3"/>
<path opacity="0.7" d="M267.961 1527.7L742.091 1120.56" stroke="#969696" stroke-width="2" stroke-miterlimit="10" stroke-linecap="round" stroke-linejoin="round" stroke-dasharray="0.3 0.3"/>
<path opacity="0.7" d="M282.28 1549.43L769.84 1130.45" stroke="#969696" stroke-width="2" stroke-miterlimit="10" stroke-linecap="round" stroke-linejoin="round" stroke-dasharray="0.3 0.3"/>
<path opacity="0.7" d="M302.416 1566.03L800.902 1137.44" stroke="#969696" stroke-width="2" stroke-miterlimit="10" stroke-linecap="round" stroke-linejoin="round" stroke-dasharray="0.3 0.3"/>
<path opacity="0.7" d="M318.128 1586.53L832.206 1144.19" stroke="#969696" stroke-width="2" stroke-miterlimit="10" stroke-linecap="round" stroke-linejoin="round" stroke-dasharray="0.3 0.3"/>
<path opacity="0.7" d="M336.588 1604.63L865.47 1149.25" stroke="#969696" stroke-width="2" stroke-miterlimit="10" stroke-linecap="round" stroke-linejoin="round" stroke-dasharray="0.3 0.3"/>
<path opacity="0.7" d="M354.886 1622.84L890.918 1161.18" stroke="#969696" stroke-width="2" stroke-miterlimit="10" stroke-linecap="round" stroke-linejoin="round" stroke-dasharray="0.3 0.3"/>
<path opacity="0.7" d="M373.244 1641.02L922.04 1168.1" stroke="#969696" stroke-width="2" stroke-miterlimit="10" stroke-linecap="round" stroke-linejoin="round" stroke-dasharray="0.3 0.3"/>
<path opacity="0.7" d="M392.148 1658.7L947.366 1180.13" stroke="#969696" stroke-width="2" stroke-miterlimit="10" stroke-linecap="round" stroke-linejoin="round" stroke-dasharray="0.3 0.3"/>
<path opacity="0.7" d="M408.85 1678.33L968.471 1195.88" stroke="#969696" stroke-width="2" stroke-miterlimit="10" stroke-linecap="round" stroke-linejoin="round" stroke-dasharray="0.3 0.3"/>
<path opacity="0.7" d="M427.774 1696L992.263 1209.28" stroke="#969696" stroke-width="2" stroke-miterlimit="10" stroke-linecap="round" stroke-linejoin="round" stroke-dasharray="0.3 0.3"/>
<path opacity="0.7" d="M447.89 1712.61L1015.69 1222.98" stroke="#969696" stroke-width="2" stroke-miterlimit="10" stroke-linecap="round" stroke-linejoin="round" stroke-dasharray="0.3 0.3"/>
<path opacity="0.7" d="M464.835 1732.04L1012.58 1260.05" stroke="#969696" stroke-width="2" stroke-miterlimit="10" stroke-linecap="round" stroke-linejoin="round" stroke-dasharray="0.3 0.3"/>
</g>
</g>
<g opacity="0.4248">
<g opacity="0.4248">
<path opacity="0.4248" d="M302.901 360.471C279.453 380.019 277.959 408.732 278.464 434.612C278.888 456.642 276.444 480.906 259.883 499.153C247.927 512.335 229.912 520 212.482 527.249C200.405 532.265 188.549 537.531 175.987 541.681C160.396 546.83 144.299 551.28 129.899 558.529C115.499 565.761 104.149 575.876 96.5551 588.308C89.0218 600.657 85.0229 614.305 82.1349 627.853C81.4078 631.236 80.8019 634.652 80.2162 638.052C80.0748 638.902 81.6098 639.285 81.8117 638.418C84.821 624.803 87.7495 611.055 93.7478 598.074C99.8673 584.875 109.4 572.944 123.234 564.411C136.806 556.046 152.802 551.063 168.454 546.047C176.209 543.564 183.965 541.064 191.498 538.098C197.072 535.898 202.505 533.432 208.019 531.116C225.509 523.817 243.968 516.751 257.318 504.536C274.222 489.054 279.312 467.907 280.362 447.676C281.069 433.995 279.776 420.33 281.412 406.682C282.988 393.534 286.986 380.235 296.055 369.17C298.377 366.337 301.023 363.721 303.911 361.304C304.577 360.755 303.568 359.921 302.901 360.471Z" fill="url(#paint2_linear_1025_14185)"/>
</g>
</g>
<g opacity="0.4248">
<g opacity="0.4248">
<path opacity="0.4248" d="M116.509 730.973C115.923 703.526 123.578 676.18 138.563 651.666C153.913 626.57 176.512 605.356 204.424 589.291C233.971 572.293 267.598 559.528 292.278 537.331C302.962 527.716 311.868 516.484 316.412 503.902C321.946 488.538 319.402 472.656 315.827 457.208C312.07 441.027 307.203 424.263 311.161 407.798C314.15 395.333 323.36 383.101 337.821 377.785C341.335 376.502 345.152 375.652 348.969 375.302C349.918 375.219 349.979 374.002 348.969 374.036C334.024 374.519 321.684 383.568 314.898 394.05C306.173 407.548 306.839 423.463 309.546 438.161C312.656 454.942 318.796 471.556 317.644 488.688C316.675 502.986 309.667 516.301 299.407 527.716C277.232 552.413 243.302 566.294 212.785 582.675C197.941 590.641 183.884 599.49 171.605 610.055C160.194 619.87 150.257 630.869 142.037 642.667C125.476 666.414 115.721 693.494 114.651 720.907C114.51 724.273 114.55 727.64 114.711 730.989C114.752 731.922 116.529 731.922 116.509 730.973Z" fill="url(#paint3_linear_1025_14185)"/>
</g>
</g>
<g opacity="0.4248">
<g opacity="0.4248">
<path opacity="0.4248" d="M244.412 374.436C231.204 388.785 233.506 407.932 237.666 424.53C241.887 441.394 248.694 458.692 244.452 476.056C242.493 484.105 237.808 491.471 230.214 496.87C222.883 502.086 213.653 504.986 204.423 507.019C194.769 509.152 184.893 510.452 175.179 512.368C165.485 514.285 156.154 517.034 147.591 521.284C130.525 529.749 116.953 543.031 110.187 558.496C109.339 560.429 108.612 562.395 108.026 564.378C107.804 565.128 109.157 565.445 109.44 564.695C115.377 548.714 127.556 534.599 144.278 525.117C152.579 520.401 161.728 517.101 171.443 514.935C181.096 512.768 190.993 511.468 200.727 509.552C209.896 507.736 219.146 505.353 227.043 500.987C235.182 496.47 241.261 489.988 244.513 482.339C247.845 474.507 248.229 465.991 247.381 457.776C246.492 449.127 244.19 440.678 241.746 432.246C239.222 423.48 236.899 414.581 236.313 405.566C235.748 397.017 236.778 388.151 241.362 380.336C242.493 378.403 243.826 376.586 245.341 374.853C245.664 374.42 244.796 374.02 244.412 374.436Z" fill="url(#paint4_linear_1025_14185)"/>
</g>
</g>
<path d="M1371.33 1360.42C1361.19 1324.46 1371.33 1285.35 1397.91 1255.69C1427.54 1222.63 1475.16 1208.71 1517.03 1189.2C1536.9 1179.91 1556.25 1169.02 1571.13 1154.53C1578.54 1147.32 1584.62 1139.3 1589.13 1130.6C1593.87 1121.39 1596.92 1111.67 1599.39 1101.91C1604.35 1082.09 1607.24 1061.83 1616.73 1043C1625.48 1025.65 1638.67 1009.84 1655.07 996.805C1690.17 968.892 1739.59 955.36 1788 959.793C1794.16 960.36 1800.32 961.226 1806.4 962.243C1807.55 962.443 1808.05 961.01 1806.88 960.776C1759.54 950.844 1706.43 960.91 1667.89 985.306C1650.12 996.572 1635.11 1010.75 1623.99 1026.8C1618.35 1034.9 1613.73 1043.48 1610.21 1052.36C1606.35 1062.16 1603.91 1072.28 1601.65 1082.39C1597.06 1102.87 1593.06 1124.07 1579.57 1142.09C1567.03 1158.83 1548.09 1171.53 1528.07 1181.86C1486.91 1203.11 1437.8 1215.51 1404.79 1246.29C1375.41 1273.7 1361.33 1311.78 1367.17 1348.06C1367.86 1352.33 1368.87 1356.54 1370.12 1360.71C1370.28 1361.36 1371.51 1361.07 1371.33 1360.42Z" fill="url(#paint5_linear_1025_14185)"/>
<path d="M1452.82 1317.66C1446.48 1305.68 1447.89 1292.1 1454.01 1280.27C1460.35 1267.97 1471.5 1258.12 1484.53 1250.35C1511.77 1234.12 1545.06 1226.89 1572.89 1211.48C1586.4 1203.99 1597.79 1194.56 1606.41 1183.16C1614.86 1172 1620.71 1159.62 1625.24 1147.02C1635.27 1119.06 1638.55 1089.46 1652.46 1062.45C1664.1 1039.87 1685.36 1018.17 1715.17 1011.57C1718.63 1010.8 1722.14 1010.19 1725.69 1009.79C1726.46 1009.7 1726.28 1008.64 1725.51 1008.67C1695.4 1010.39 1670.88 1030.1 1657.05 1050.91C1639.72 1076.99 1635.62 1107.16 1626.99 1135.59C1622.98 1148.82 1617.97 1161.93 1610.41 1174.11C1602.78 1186.43 1592.48 1197.33 1579.19 1205.83C1551.94 1223.26 1517.65 1230.49 1488.99 1245.97C1475.64 1253.19 1463.48 1262.24 1455.73 1273.89C1448.54 1284.67 1444.78 1297.58 1448.07 1309.76C1448.86 1312.7 1450.09 1315.51 1451.69 1318.23C1452.03 1318.9 1453.16 1318.31 1452.82 1317.66Z" fill="url(#paint6_linear_1025_14185)"/>
<path d="M1704.12 1076.46C1686.61 1080.58 1672.48 1091.49 1662.26 1103.56C1651.19 1116.66 1644.14 1131.67 1639.01 1146.98C1633.01 1164.85 1629.11 1183.2 1621.96 1200.79C1618.53 1209.24 1614.39 1217.58 1608.8 1225.21C1603.83 1231.97 1597.77 1238.19 1590.78 1243.61C1577.21 1254.1 1559.52 1261.57 1540.55 1261.04C1538.21 1260.97 1535.87 1260.79 1533.55 1260.5C1532.45 1260.37 1531.95 1261.7 1533.08 1261.9C1551.54 1265.15 1570.3 1259.52 1584.94 1250.34C1592.62 1245.52 1599.37 1239.77 1605.12 1233.39C1611.22 1226.62 1615.93 1219.19 1619.8 1211.41C1628.45 1194.08 1632.79 1175.58 1638.16 1157.45C1642.93 1141.3 1648.77 1125.37 1659.03 1110.96C1668.4 1097.79 1681.18 1086.41 1698.02 1079.74C1700.12 1078.91 1702.27 1078.16 1704.43 1077.48C1705.21 1077.23 1704.93 1076.26 1704.12 1076.46Z" fill="url(#paint7_linear_1025_14185)"/>
<defs>
<linearGradient id="paint0_linear_1025_14185" x1="712.782" y1="1133.08" x2="464.905" y2="1351.95" gradientUnits="userSpaceOnUse">
<stop offset="0.1031" stop-color="#2F3E41"/>
<stop offset="0.3506" stop-color="#273132"/>
<stop offset="0.714" stop-color="#1E2422"/>
<stop offset="0.9948" stop-color="#1B1F1C"/>
</linearGradient>
<linearGradient id="paint1_linear_1025_14185" x1="1103.62" y1="434.73" x2="1557.85" y2="434.73" gradientUnits="userSpaceOnUse">
<stop offset="0.1031" stop-color="#2F3E41"/>
<stop offset="0.3506" stop-color="#273132"/>
<stop offset="0.714" stop-color="#1E2422"/>
<stop offset="0.9948" stop-color="#1B1F1C"/>
</linearGradient>
<linearGradient id="paint2_linear_1025_14185" x1="80.2005" y1="499.597" x2="304.133" y2="499.597" gradientUnits="userSpaceOnUse">
<stop stop-color="#5C5A44"/>
<stop offset="0.6103" stop-color="#3F4541"/>
<stop offset="1" stop-color="#313C40"/>
</linearGradient>
<linearGradient id="paint3_linear_1025_14185" x1="114.586" y1="552.848" x2="349.078" y2="552.848" gradientUnits="userSpaceOnUse">
<stop stop-color="#5C5A44"/>
<stop offset="0.6103" stop-color="#3F4541"/>
<stop offset="1" stop-color="#313C40"/>
</linearGradient>
<linearGradient id="paint4_linear_1025_14185" x1="107.72" y1="469.693" x2="247.709" y2="469.693" gradientUnits="userSpaceOnUse">
<stop stop-color="#5C5A44"/>
<stop offset="0.6103" stop-color="#3F4541"/>
<stop offset="1" stop-color="#313C40"/>
</linearGradient>
<linearGradient id="paint5_linear_1025_14185" x1="1365.84" y1="1159.02" x2="1807.05" y2="1159.02" gradientUnits="userSpaceOnUse">
<stop stop-color="#5C5A44"/>
<stop offset="0.6103" stop-color="#3F4541"/>
<stop offset="1" stop-color="#313C40"/>
</linearGradient>
<linearGradient id="paint6_linear_1025_14185" x1="1446.83" y1="1163.6" x2="1725.67" y2="1163.6" gradientUnits="userSpaceOnUse">
<stop stop-color="#5C5A44"/>
<stop offset="0.6103" stop-color="#3F4541"/>
<stop offset="1" stop-color="#313C40"/>
</linearGradient>
<linearGradient id="paint7_linear_1025_14185" x1="1533.15" y1="1169.63" x2="1704.6" y2="1169.63" gradientUnits="userSpaceOnUse">
<stop stop-color="#5C5A44"/>
<stop offset="0.6103" stop-color="#3F4541"/>
<stop offset="1" stop-color="#313C40"/>
</linearGradient>
</defs>
</svg>
