<svg width="906" height="640" viewBox="0 0 906 640" fill="none" xmlns="http://www.w3.org/2000/svg">
<g opacity="0.4248">
<path opacity="0.4248" d="M537.049 19.2313C505.987 4.98312 467.493 -4.38232 432.21 3.98326C404.844 10.4657 384.183 27.3469 368.591 46.3444C351 67.775 338.62 91.7885 325.472 115.185C317.414 129.534 308.648 143.298 296.914 155.863C284.292 169.378 269.245 181.393 252.442 191.342C235.093 201.641 215.967 209.673 195.71 215.222C172.626 221.555 148.613 225.054 124.922 229.504C86.0038 236.803 44.7023 248.135 19.2145 275.165C7.9651 287.096 1.3003 301.561 0.977163 316.726C0.654021 332.307 6.71293 347.638 16.2254 360.97C37.8557 391.283 75.4815 408.63 114.743 419.729C156.832 431.627 201.244 437.293 242.445 451.408C263.065 458.474 282.797 467.739 299.136 480.404C315.333 492.953 327.855 508.251 338.983 524.032C359.927 553.778 376.811 586.224 407.025 610.687C420.94 621.969 437.562 631.085 456.365 635.734C475.248 640.384 495.404 640.384 514.591 637.017C604.808 621.136 644.958 546.096 681.332 484.487C701.69 450.025 724.249 416.463 758.583 390.033C791.705 364.536 831.209 345.072 862.069 317.526C889.455 293.096 910.055 261.816 905.208 227.571C900.604 195.042 876.045 166.245 845.932 145.881C811.235 122.418 768.297 108.686 726.632 96.0713C704.234 89.2888 681.554 82.9729 659.802 74.8407C638.354 66.8084 617.713 57.4096 597.355 47.6609C587.621 43.0115 577.947 38.2788 568.252 33.5794C557.952 28.5967 547.289 24.2139 536.867 19.4312C536.16 19.0979 535.514 19.9978 536.221 20.3311C546.622 25.0972 556.579 30.5798 566.859 35.5458C576.553 40.2452 586.247 44.9613 595.962 49.6273C615.855 59.1427 636.011 68.3415 656.935 76.2405C698.438 91.9218 742.789 101.737 784.172 117.685C822.787 132.566 859.1 152.531 882.306 182.727C892.949 196.591 900.543 212.273 902.623 228.671C904.804 245.785 900.624 262.866 891.758 278.381C873.237 310.81 838.762 333.94 805.216 355.454C787.403 366.869 769.428 378.168 753.17 391.083C737.457 403.548 723.946 417.646 712.212 432.777C688.259 463.673 671.496 497.786 650.936 530.198C630.841 561.861 606.282 593.54 570.131 614.27C536.726 633.418 492.698 643.7 453.093 632.451C414.114 621.386 388.323 592.123 368.692 563.76C347.89 533.714 330.602 500.735 298.873 477.122C267.549 453.825 226.348 442.809 186.38 434.01C144.109 424.695 99.9393 417.046 62.677 397.182C29.757 379.634 2.39091 349.238 3.66328 315.626C4.95585 281.58 38.3 257.617 73.5831 244.768C115.874 229.37 163.356 228.021 206.374 214.339C242.344 202.907 274.254 183.177 297.985 158.146C319.07 135.899 330.945 109.42 345.749 84.2561C358.554 62.509 373.055 40.2285 395.008 23.764C417.729 6.73289 446.852 0.317059 477.086 3.8166C497.888 6.21629 517.66 12.3155 536.039 20.5978C537.17 21.081 538.14 19.7145 537.049 19.2313Z" fill="url(#paint0_linear_1025_14345)"/>
</g>
<defs>
<linearGradient id="paint0_linear_1025_14345" x1="0.974739" y1="320.121" x2="905.93" y2="320.121" gradientUnits="userSpaceOnUse">
<stop stop-color="#5C5A44"/>
<stop offset="0.6103" stop-color="#3F4541"/>
<stop offset="1" stop-color="#313C40"/>
</linearGradient>
</defs>
</svg>
