<svg width="24" height="25" viewBox="0 0 24 25" fill="none" xmlns="http://www.w3.org/2000/svg">
<g clip-path="url(#clip0_560_89)">
<path d="M12 3.03105C15.2063 3.03105 15.5859 3.04512 16.8469 3.10137C18.0188 3.15293 18.6516 3.3498 19.0734 3.51387C19.6313 3.72949 20.0344 3.99199 20.4516 4.40918C20.8734 4.83105 21.1313 5.22949 21.3469 5.7873C21.5109 6.20918 21.7078 6.84668 21.7594 8.01387C21.8156 9.27949 21.8297 9.65918 21.8297 12.8607C21.8297 16.067 21.8156 16.4467 21.7594 17.7076C21.7078 18.8795 21.5109 19.5123 21.3469 19.9342C21.1313 20.492 20.8687 20.8951 20.4516 21.3123C20.0297 21.7342 19.6313 21.992 19.0734 22.2076C18.6516 22.3717 18.0141 22.5686 16.8469 22.6201C15.5813 22.6764 15.2016 22.6904 12 22.6904C8.79375 22.6904 8.41406 22.6764 7.15313 22.6201C5.98125 22.5686 5.34844 22.3717 4.92656 22.2076C4.36875 21.992 3.96563 21.7295 3.54844 21.3123C3.12656 20.8904 2.86875 20.492 2.65313 19.9342C2.48906 19.5123 2.29219 18.8748 2.24063 17.7076C2.18438 16.442 2.17031 16.0623 2.17031 12.8607C2.17031 9.65449 2.18438 9.2748 2.24063 8.01387C2.29219 6.84199 2.48906 6.20918 2.65313 5.7873C2.86875 5.22949 3.13125 4.82637 3.54844 4.40918C3.97031 3.9873 4.36875 3.72949 4.92656 3.51387C5.34844 3.3498 5.98594 3.15293 7.15313 3.10137C8.41406 3.04512 8.79375 3.03105 12 3.03105ZM12 0.870117C8.74219 0.870117 8.33438 0.88418 7.05469 0.94043C5.77969 0.99668 4.90313 1.20293 4.14375 1.49824C3.35156 1.80762 2.68125 2.21543 2.01563 2.88574C1.34531 3.55137 0.9375 4.22168 0.628125 5.00918C0.332812 5.77324 0.126563 6.64512 0.0703125 7.92012C0.0140625 9.20449 0 9.6123 0 12.8701C0 16.1279 0.0140625 16.5357 0.0703125 17.8154C0.126563 19.0904 0.332812 19.967 0.628125 20.7264C0.9375 21.5186 1.34531 22.1889 2.01563 22.8545C2.68125 23.5201 3.35156 23.9326 4.13906 24.2373C4.90313 24.5326 5.775 24.7389 7.05 24.7951C8.32969 24.8514 8.7375 24.8654 11.9953 24.8654C15.2531 24.8654 15.6609 24.8514 16.9406 24.7951C18.2156 24.7389 19.0922 24.5326 19.8516 24.2373C20.6391 23.9326 21.3094 23.5201 21.975 22.8545C22.6406 22.1889 23.0531 21.5186 23.3578 20.7311C23.6531 19.967 23.8594 19.0951 23.9156 17.8201C23.9719 16.5404 23.9859 16.1326 23.9859 12.8748C23.9859 9.61699 23.9719 9.20918 23.9156 7.92949C23.8594 6.65449 23.6531 5.77793 23.3578 5.01855C23.0625 4.22168 22.6547 3.55137 21.9844 2.88574C21.3188 2.22012 20.6484 1.80762 19.8609 1.50293C19.0969 1.20762 18.225 1.00137 16.95 0.945117C15.6656 0.88418 15.2578 0.870117 12 0.870117Z" fill="white"/>
<path d="M12 6.70605C8.59688 6.70605 5.83594 9.46699 5.83594 12.8701C5.83594 16.2732 8.59688 19.0342 12 19.0342C15.4031 19.0342 18.1641 16.2732 18.1641 12.8701C18.1641 9.46699 15.4031 6.70605 12 6.70605ZM12 16.8686C9.79219 16.8686 8.00156 15.0779 8.00156 12.8701C8.00156 10.6623 9.79219 8.87168 12 8.87168C14.2078 8.87168 15.9984 10.6623 15.9984 12.8701C15.9984 15.0779 14.2078 16.8686 12 16.8686Z" fill="white"/>
<path d="M19.8469 6.4625C19.8469 7.25938 19.2 7.90157 18.4078 7.90157C17.6109 7.90157 16.9688 7.25469 16.9688 6.4625C16.9688 5.66563 17.6156 5.02344 18.4078 5.02344C19.2 5.02344 19.8469 5.67031 19.8469 6.4625Z" fill="white"/>
</g>
<defs>
<clipPath id="clip0_560_89">
<rect width="24" height="24" fill="white" transform="translate(0 0.870117)"/>
</clipPath>
</defs>
</svg>
