<svg width="24" height="25" viewBox="0 0 24 25" fill="none" xmlns="http://www.w3.org/2000/svg">
<g clip-path="url(#clip0_560_90)">
<path d="M22.2234 0.870117H1.77187C0.792187 0.870117 0 1.64355 0 2.5998V23.1357C0 24.092 0.792187 24.8701 1.77187 24.8701H22.2234C23.2031 24.8701 24 24.092 24 23.1404V2.5998C24 1.64355 23.2031 0.870117 22.2234 0.870117ZM7.12031 21.3217H3.55781V9.86543H7.12031V21.3217ZM5.33906 8.30449C4.19531 8.30449 3.27188 7.38105 3.27188 6.24199C3.27188 5.10293 4.19531 4.17949 5.33906 4.17949C6.47813 4.17949 7.40156 5.10293 7.40156 6.24199C7.40156 7.37637 6.47813 8.30449 5.33906 8.30449ZM20.4516 21.3217H16.8937V15.7529C16.8937 14.4264 16.8703 12.7154 15.0422 12.7154C13.1906 12.7154 12.9094 14.1639 12.9094 15.6592V21.3217H9.35625V9.86543H12.7687V11.4311H12.8156C13.2891 10.5311 14.4516 9.57949 16.1813 9.57949C19.7859 9.57949 20.4516 11.9514 20.4516 15.0357V21.3217Z" fill="white"/>
</g>
<defs>
<clipPath id="clip0_560_90">
<rect width="24" height="24" fill="white" transform="translate(0 0.870117)"/>
</clipPath>
</defs>
</svg>
